<svg width="242" height="50" viewBox="0 0 242 50" fill="none" xmlns="http://www.w3.org/2000/svg">
  <g clip-path="url(#a)" fill="#000">
    <path d="M1 1.99a1 1 0 0 0-1 1v2.797a1 1 0 0 0 1 1h22a1 1 0 0 0 1-1V2.991a1 1 0 0 0-1-1zm0 7.196a1 1 0 0 0-1 1V20.9a4.8 4.8 0 0 0 3.052 4.464l15.512 6.056a1 1 0 0 1 .636.932V35a1 1 0 0 1-.425.818l-6.2 4.356a1 1 0 0 1-1.15 0l-6.2-4.356A1 1 0 0 1 4.8 35v-3.23a1 1 0 0 0-1-1H1a1 1 0 0 0-1 1v3.75c0 1.556.764 3.027 2.04 3.925l7.135 5.013a1 1 0 0 1 .425.818v2.282A2.397 2.397 0 0 0 12 49.99a2.4 2.4 0 0 0 2.227-1.504c.119-.295.178-.61.173-.928v-2.282a1 1 0 0 1 .425-.818l7.131-5.014A4.8 4.8 0 0 0 24 35.52v-3.855a4.805 4.805 0 0 0-3.052-4.464L5.436 21.145a1 1 0 0 1-.636-.932v-5.23a1 1 0 0 1 1-1h12.4a1 1 0 0 1 1 1v5.194a1 1 0 0 0 1 1H23a1 1 0 0 0 1-1v-9.991a1 1 0 0 0-1-1zM27.846 1.45h4.84v11.008h.287L42.367 1.45h5.845v.287l-9.287 10.614L49.18 26.836v.287h-5.916l-7.638-10.936-2.94 3.406v7.53h-4.84zm28.826 4.59v5.952h10.29v4.59h-10.29v5.952H68.11v4.59H51.83V1.45h16.28v4.59zM78.01 27.123V6.04h-7.17V1.45h19.182v4.59h-7.171v21.083zM114.825 23q-1.9 2.294-4.482 3.514-2.582 1.182-5.773 1.183-2.868 0-5.343-1.04-2.437-1.04-4.23-2.833t-2.833-4.23q-1.04-2.475-1.04-5.307t1.04-5.271q1.04-2.475 2.832-4.267 1.794-1.793 4.231-2.832 2.475-1.04 5.343-1.04 3.084 0 5.414 1.075 2.367 1.076 4.195 3.12l-3.406 3.299a9 9 0 0 0-2.653-2.116q-1.47-.789-3.514-.789a8.8 8.8 0 0 0-3.371.646 8.1 8.1 0 0 0-2.76 1.757q-1.148 1.148-1.83 2.796-.68 1.614-.68 3.622t.68 3.657q.682 1.614 1.83 2.761a8.6 8.6 0 0 0 2.76 1.793 9.3 9.3 0 0 0 3.371.61q2.151 0 3.8-.861 1.686-.896 2.977-2.51zm3.886-21.55h4.84v10.255h10.793V1.45h4.84v25.673h-4.84V16.295h-10.793v10.828h-4.84zm23.623 0h5.127l3.98 14.988.574 2.761h.287l.753-2.76 3.693-11.546h4.518l3.729 11.545.717 2.725h.287l.537-2.725 3.729-14.988h5.128l-6.813 25.673h-4.661l-4.016-12.37-.753-2.833h-.287l-.753 2.833-4.015 12.37h-4.662zm42.101 0h5.522l9.645 25.673h-5.343l-2.115-6.131h-9.896l-2.116 6.131h-5.342zm6.131 15.096-2.295-6.418-.932-3.12h-.287l-.932 3.12-2.295 6.418zM202.607 1.45h9.359q1.936 0 3.513.61 1.578.61 2.69 1.685a7.2 7.2 0 0 1 1.757 2.582q.609 1.47.609 3.227 0 1.29-.43 2.438a7.6 7.6 0 0 1-1.183 2.044 9.5 9.5 0 0 1-1.757 1.613 9.3 9.3 0 0 1-2.116 1.076l-.036.251 6.885 9.86v.287h-5.558l-6.633-9.645h-2.259v9.645h-4.841zm9.323 11.582q1.649 0 2.689-1.004 1.076-1.005 1.076-2.546 0-.681-.251-1.326a3.1 3.1 0 0 0-.682-1.148 3.2 3.2 0 0 0-1.183-.789q-.681-.322-1.578-.322h-4.553v7.135zm17.753-6.992v5.952h10.29v4.59h-10.29v5.952h11.438v4.59h-16.279V1.45h16.279v4.59zM27.807 49.01V30.036h6.678q1.351 0 2.518.45a6 6 0 0 1 2.067 1.22 5.75 5.75 0 0 1 1.378 1.908q.503 1.086.503 2.411 0 1.352-.503 2.465a5.8 5.8 0 0 1-1.378 1.881 6.4 6.4 0 0 1-2.067 1.246 7.3 7.3 0 0 1-2.518.424h-3.1v6.97zm6.731-10.361q1.405 0 2.12-.795t.716-1.829q0-.503-.186-.98a1.94 1.94 0 0 0-.53-.822 2.4 2.4 0 0 0-.874-.583q-.53-.211-1.246-.212h-3.153v5.22zm8.528-2.624h3.26v1.802h.211q.24-.477.636-.874.398-.397.875-.69a4.7 4.7 0 0 1 1.06-.45 4.3 4.3 0 0 1 1.14-.159q.688 0 1.165.133.504.132.848.344l-.927 3.154a2.8 2.8 0 0 0-.716-.239 3.4 3.4 0 0 0-.927-.106q-.715 0-1.299.292a2.84 2.84 0 0 0-1.007.768 4 4 0 0 0-.636 1.193 4.8 4.8 0 0 0-.212 1.457v6.36h-3.471zm16.137-.424q1.51 0 2.756.53a6.1 6.1 0 0 1 2.173 1.431 6.1 6.1 0 0 1 1.431 2.173q.53 1.272.53 2.783t-.53 2.782a6.4 6.4 0 0 1-1.431 2.2q-.9.901-2.173 1.43-1.245.505-2.756.504-1.51 0-2.783-.503a7 7 0 0 1-2.172-1.431 7 7 0 0 1-1.431-2.2q-.504-1.272-.504-2.782t.503-2.783a6.7 6.7 0 0 1 1.431-2.173 6.5 6.5 0 0 1 2.173-1.43q1.273-.53 2.783-.53m0 10.627q.663 0 1.272-.239a3.4 3.4 0 0 0 1.113-.742q.477-.477.742-1.166.291-.689.291-1.563t-.291-1.564a3.3 3.3 0 0 0-.742-1.166 3.1 3.1 0 0 0-1.113-.715 3.2 3.2 0 0 0-1.272-.265q-.69 0-1.299.265a3.1 3.1 0 0 0-1.086.715 3.6 3.6 0 0 0-.768 1.166q-.265.689-.265 1.564 0 .874.265 1.563.291.69.768 1.166.477.477 1.087.742.61.24 1.298.239"/>
  </g>
  <defs>
    <clipPath id="a">
      <path fill="#fff" d="M0 0h242v50H0z"/>
    </clipPath>
  </defs>
</svg>
